<svg
  viewBox="2 2 30 30"
  xmlns="http://www.w3.org/2000/svg"
  style="stroke: currentColor; stroke-width: 0.8px; fill: none; width: 1em; height: 1em;"
>
  <path
    stroke-linecap="round"
    stroke-linejoin="round"
    style="fill: var(--svgPrimaryColor);"
    d="m 25.904627,5.1706578 c -0.97798,0 -1.782732,1.2950198 -2.351278,3.9997555 -0.82663,3.9325287 -2.17529,6.7249277 -3.761527,8.7431357 0.265811,0.609656 0.516529,1.349429 0.761194,2.257226 1.102708,-1.000381 2.863519,-1.327333 4.399214,-10e-4 1.84936,-2.469387 3.229975,-5.715482 3.600814,-9.998873 0.284384,-3.2847831 -1.586901,-5.0002112 -2.648417,-5.0002112 z"
  />
  <path
    stroke-linecap="round"
    stroke-linejoin="round"
    style="fill: var(--svgSecondaryColor);"
    d="m 17.234355,15.733837 c -0.955923,0.02323 -3.819902,1.01265 -5.041069,3.01265 2.222485,-0.979149 4.037398,-1.316094 4.893791,1.790674 -3.62595,2.654085 -7.5678745,2.975174 -9.5337845,3.63337 -1.857143,0.621781 -2.666126,1.999888 -2.36833,2.60656 0.530183,1.080093 2.678425,1.900725 5.3681465,1.393713 1.360976,-0.256544 6.130053,-1.10605 10.443291,-4.173905 L 21,23.999999 c 2.55313,-2.078448 3.911221,1.168932 6.911206,4.541325 -0.367989,-4.626709 -1.571712,-7.17346 -2.958993,-8.371582 -1.535689,-1.326295 -3.29651,-0.999344 -4.399214,0.001 -0.244664,-0.907795 -0.495383,-1.647571 -0.761194,-2.257226 -0.683894,-1.568558 -1.474087,-2.206043 -2.557467,-2.179712 z"
  />
  <path
    stroke-linecap="round"
    stroke-linejoin="round"
    style="stroke-width: 0.6px"
    d="m 26.177437,15.342849 c -0.515009,1.327218 -1.417491,2.993102 -2.283598,4.025764"
  />
  <path
    stroke-linecap="round"
    stroke-linejoin="round"
    style="stroke-width: 0.6px"
    d="m 13.934782,26.127782 c 1.357943,-0.43787 2.385195,-0.930985 3.388407,-1.428115"
  />
</svg>
