<svg
  viewBox="0 -1 29 37"
  xmlns="http://www.w3.org/2000/svg"
  style="stroke: currentColor; stroke-width: 1.5px; fill: none; width: 1em; height: 1em;"
>
  <path
    id="Main body"
    style="fill: var(--svgPrimaryColor)"
    stroke-linecap="round"
    stroke-linejoin="round"
    d="m 14.496514,1.5779997 a 3.8626957,3.8626957 0 0 0 -3.839042,3.531568 4.9227867,4.9227867 0 0 0 -0.222726,-0.01602 4.9227867,4.9227867 0 0 0 -4.9226965,4.9226973 4.9227867,4.9227867 0 0 0 0.333313,1.74563 4.8626966,4.8626966 0 0 0 -4.211629,4.816243 4.8626966,4.8626966 0 0 0 4.862752,4.862753 4.8626966,4.8626966 0 0 0 4.5377075,-3.118673 5.4313488,5.4313488 0 0 0 3.462321,1.255737 5.4313488,5.4313488 0 0 0 3.859713,-1.610754 4.8626966,4.8626966 0 0 0 4.65863,3.47369 4.8626966,4.8626966 0 0 0 4.862752,-4.862753 4.8626966,4.8626966 0 0 0 -3.653524,-4.709273 4.6195621,4.6195621 0 0 0 0.765328,-2.5409303 4.6195621,4.6195621 0 0 0 -4.619356,-4.619356 4.6195621,4.6195621 0 0 0 -2.020548,0.472839 3.8626957,3.8626957 0 0 0 -3.852995,-3.603398 z"
  />
  <path
    stroke-linecap="round"
    stroke-linejoin="round"
    d="m 24.9896,9.3281587 c 0,0.318914 -0.03232,0.6302808 -0.09385,0.9310033 -0.06154,0.300722 -0.152294,0.590801 -0.269175,0.867139 -0.116881,0.276339 -0.259887,0.538937 -0.425921,0.784699 -0.166033,0.245762 -0.355095,0.474689 -0.564089,0.683683 -0.208994,0.208994 -0.437921,0.398056 -0.683683,0.564089 -0.245762,0.166034 -0.50836,0.30904 -0.784699,0.425921 -0.276338,0.116881 -0.566417,0.207638 -0.867139,0.269175 -0.300722,0.06154 -0.612089,0.09385 -0.931003,0.09385"
  />
  <path
    stroke-linecap="round"
    stroke-linejoin="round"
    d="m 7.6823035,14.098422 c -0.261894,-0.176932 -0.505847,-0.378404 -0.728559,-0.601116 -0.222712,-0.222712 -0.424184,-0.466665 -0.601116,-0.728559 -0.176932,-0.261894 -0.329325,-0.541729 -0.453878,-0.836206 -0.03114,-0.07362 -0.06054,-0.148154 -0.08814,-0.223552"
  />
  <path
    stroke-linecap="round"
    stroke-linejoin="round"
    d="m 17.227803,8.1721927 c -0.174752,0.174753 -0.366171,0.332839 -0.571668,0.471669 -0.205497,0.138831 -0.425071,0.258407 -0.656135,0.356138 -0.231063,0.09773 -0.473615,0.173619 -0.725067,0.225074 -0.251452,0.05145 -0.511805,0.07848 -0.778468,0.07848 -0.266663,0 -0.527016,-0.02702 -0.778468,-0.07848"
  />
  <path
    id="Stalk"
    style="fill: var(--svgSecondaryColor)"
    d="m 12.496466,33.578157 h 4 c 1,0 1,-1 1,-1 0.09923,-5.547141 3.066231,-8.513486 3.559102,-11.550121 -0.83198,-0.389622 -1.55813,-0.939503 -2.097913,-1.771606 -0.931651,2.580187 -1.919555,4.68421 -3.101164,6.689792 -6.91e-4,-0.03806 -0.232106,-4.656856 0.247145,-6.611714 -1.006676,0.245574 -2.014104,0.376811 -3.024527,0.05224 -0.508194,2.001423 -0.333491,4.128156 -0.58264,6.191405 L 9.9663544,19.9834 c -0.6456899,0.610438 -1.3925549,1.153511 -2.6131669,1.381141 1.755079,4.063622 3.9930875,7.201875 4.1432815,11.213607 0,0 0,1 1,1 z"
  />
</svg>
