<svg
  viewBox="-3 -3 90 90"
  xmlns="http://www.w3.org/2000/svg"
  style="stroke: currentColor; stroke-width: 3px; fill: none; width: 1em; height: 1em;"
>
  <path
    style="fill: var(--svgPrimaryColor)"
    d="m 25.506096,41.062446 c -1.414214,-1.414214 -1.23,-3.390339 -0.783407,-5.026048 0.70573,-2.584837 3.207695,-4.316702 5.102351,-6.211358 1.894655,-1.894655 3.626521,-4.396621 6.211358,-5.102351 1.635708,-0.446592 3.611834,-0.630807 5.026048,0.783407 0.707106,0.707107 24.748739,24.748735 33.234019,37.476661 2.82843,4.24264 7.07107,14.14214 4.94975,16.26346 -2.12132,2.12132 -12.020818,-2.12132 -16.263458,-4.94975 C 50.25483,65.811186 26.213203,41.769552 25.506096,41.062446 Z"
    id="Main Body"
  />
  <path
    stroke-linecap="round"
    stroke-linejoin="round"
    style="fill: var(--svgSecondaryColor)"
    d="m 28.334524,31.16295 c 0,0 -12.741714,2.35918 -13.435029,-2.121319 -0.322385,-2.08339 5.656855,-2.828428 5.656855,-2.828428 0,0 -11.9462682,0.640457 -12.0208161,-3.535533 -0.039911,-2.235712 6.3639611,-2.121321 6.3639611,-2.121321 0,0 -12.0540203,-1.505984 -11.3137089,-5.656854 0.3747542,-2.101217 6.3639618,-0.707107 6.3639618,-0.707107 0,0 -7.4105517,-6.7315841 -4.9497478,-9.1923881 2.4608039,-2.4608041 9.1923889,4.9497474 9.1923889,4.9497474 0,0 -1.394112,-5.9892071 0.707106,-6.3639614 4.15087,-0.740312 5.656855,11.3137091 5.656855,11.3137091 0,0 -0.114392,-6.4038714 2.12132,-6.3639607 4.175989,0.074547 3.535534,12.0208147 3.535534,12.0208147 0,0 0.745037,-5.979238 2.828427,-5.656854 4.480499,0.693315 2.12132,13.435028 2.12132,13.435028 z"
    id="Leaves"
  />
  <path
    d="m 25.506095,41.062446 c 1.534987,-1.062177 3.009963,-2.183249 4.425195,-3.362955 1.415231,-1.179705 2.770718,-2.418044 4.066725,-3.714754"
    id="path18"
  />
  <path
    d="m 39.434356,35.529839 c 0.618195,-0.677478 1.221531,-1.369471 1.810045,-2.075945 0.588515,-0.706474 1.162209,-1.427427 1.721124,-2.162819 0.558914,-0.735392 1.10305,-1.485222 1.632448,-2.24945"
    id="path19"
  />
  <path
    d="m 34.906285,46.420078 c 0.72254,-0.546224 1.431557,-1.107911 2.126956,-1.685176 0.695396,-0.577267 1.377175,-1.170107 2.045234,-1.778638 0.668058,-0.608534 1.322399,-1.232753 1.96292,-1.872778"
    id="path20"
  />
  <path
    d="m 39.965232,54.88758 c 0.368645,-0.250897 0.73374,-0.505602 1.095293,-0.764105 0.361555,-0.258501 0.719559,-0.52081 1.07402,-0.78692 0.354457,-0.266112 0.705373,-0.536023 1.05274,-0.809741 0.347368,-0.273716 0.69118,-0.551244 1.031452,-0.832572 0.340272,-0.281327 0.676988,-0.566467 1.010158,-0.855409 0.333168,-0.288945 0.662787,-0.581696 0.988858,-0.878253 0.326072,-0.296557 0.648581,-0.596933 0.967548,-0.901107 0.31896,-0.304182 0.634373,-0.61217 0.94623,-0.92397 0.311856,-0.311802 0.62018,-0.627394 0.924905,-0.94684"
    id="path22"
  />
  <path
    d="m 55.152012,55.25696 c 0.299608,-0.298052 0.595752,-0.600135 0.888432,-0.906251 0.292681,-0.306116 0.581942,-0.616223 0.867694,-0.930414 0.285751,-0.314191 0.568015,-0.632446 0.846757,-0.954804 0.278743,-0.322357 0.553965,-0.648815 0.82563,-0.979419 0.271668,-0.330598 0.539777,-0.665345 0.804305,-1.004262 0.264529,-0.338917 0.525466,-0.682018 0.782786,-1.029332 0.257325,-0.347311 0.511023,-0.698845 0.761075,-1.054628 0.250053,-0.35578 0.496449,-0.715821 0.739165,-1.080151"
    id="path24"
  />
  <path
    d="m 51.087772,64.964795 c 0.343919,-0.227444 0.684556,-0.45858 1.021888,-0.693435 0.337331,-0.234856 0.671357,-0.473429 1.002048,-0.715754 0.330688,-0.242328 0.658047,-0.488402 0.982041,-0.738259 0.323993,-0.249859 0.644625,-0.5035 0.961871,-0.760949 0.317243,-0.257451 0.631101,-0.518713 0.941535,-0.783823"
    id="path25"
  />
  <path
    d="m 54.931726,68.199365 c 0.167082,-0.108292 0.333268,-0.217513 0.49857,-0.327649 0.165296,-0.110142 0.329689,-0.221218 0.493214,-0.333196 0.16349,-0.112012 0.326147,-0.224889 0.487866,-0.338736 0.161753,-0.113812 0.322534,-0.228631 0.482481,-0.344313 0.159948,-0.115683 0.318992,-0.2323 0.477133,-0.349854 0.158141,-0.117553 0.315379,-0.236041 0.471785,-0.355395 0.156335,-0.119424 0.311837,-0.239712 0.466365,-0.361006 0.154529,-0.121295 0.308225,-0.243454 0.460947,-0.366619 0.152722,-0.123165 0.304612,-0.247195 0.455598,-0.37216 0.150987,-0.124965 0.301,-0.250936 0.450181,-0.377772 0.14918,-0.126836 0.297387,-0.254678 0.444761,-0.383385 0.147375,-0.128707 0.293776,-0.25842 0.439344,-0.388998 0.145568,-0.130577 0.290163,-0.262161 0.433925,-0.394609 0.143762,-0.132449 0.28655,-0.265904 0.428506,-0.400223 0.141674,-0.134603 0.282656,-0.269928 0.423089,-0.405835 0.140292,-0.13605 0.279186,-0.273529 0.417389,-0.411732"
    id="path26"
  />
  <path
    d="m 65.506964,72.621927 c 0.270505,-0.1971 0.537656,-0.39793 0.801484,-0.60244 0.2638,-0.20455 0.524247,-0.41281 0.781232,-0.62491 0.257027,-0.21205 0.510633,-0.4279 0.760821,-0.64754 0.250187,-0.21964 0.496884,-0.44314 0.740235,-0.67037 0.243279,-0.2273 0.48307,-0.458466 0.719446,-0.693427 0.236326,-0.235011 0.469405,-0.473648 0.698455,-0.716699 0.22898,-0.243122 0.455111,-0.489476 0.677333,-0.740124 0.222223,-0.250649 0.440962,-0.505167 0.656078,-0.7637"
    id="path28"
  />
  <path
    d="m 72.855695,72.908677 c 0.19386,-0.19268 0.38384,-0.3895 0.57087,-0.58953 0.18646,-0.20061 0.36988,-0.40453 0.54939,-0.61261 0.17952,-0.20809 0.35549,-0.41998 0.52779,-0.63583 0.17229,-0.21585 0.34097,-0.43558 0.50602,-0.65921 0.16499,-0.22369 0.32638,-0.45126 0.48408,-0.68278 0.15771,-0.231527 0.3117,-0.467036 0.462,-0.706515 0.15027,-0.239509 0.29689,-0.482945 0.43974,-0.730423 0.14285,-0.247493 0.28198,-0.498972 0.41734,-0.7545"
    id="path29"
  />
</svg>
