<svg
  viewBox="-1 -1 28.688505 28.808784"
  xmlns="http://www.w3.org/2000/svg"
  style="fill: currentColor; display: inline-block; width: 1em; height: 1em; stroke: none;"
  >
    <path
      fill-rule="evenodd"
      d="m 1,0.99999997 c 2.8284108,0.00963 7.7757213,0.73358573 11.299197,4.28113663 3.523478,3.5475517 5.132238,8.7149374 5.827304,12.2528584 l 0.14094,0.141903 7.420966,1.085933 c -2.911684,1.361374 -5.516516,3.277124 -7.095102,7.046952 L 17.557931,18.380594 17.41699,18.238691 C 13.883885,17.519551 8.7275731,15.87564 5.2040961,12.328089 1.6806199,8.7805375 0.99037012,3.8284108 1,0.99999997 Z M 5.9424966,3.1381609 c 0.3333312,0.00114 0.7058306,0.376179 0.7046953,0.7095102 C 6.6460567,4.1810025 6.271013,4.5535013 5.9376818,4.5523662 5.6043506,4.5512309 5.2318513,4.1761874 5.2329865,3.8428561 c 0.00114,-0.3333313 0.376179,-0.70583 0.7095101,-0.7046952 z"
    />
</svg>
