<svg viewBox="-1 -1 90 90" xmlns="http://www.w3.org/2000/svg" style="width: 1em; height: 1em;">
  <path
    style="fill: var(--svgSecondaryColor); stroke: none"
    d="m 2.7795279,36.795276 c 0,-18.897638 18.8976391,-30.2362208 41.5748051,-30.2362208 22.677167,0 41.574805,11.3385828 41.574805,30.2362208 0,18.897638 -15.118111,18.897638 -22.677166,18.897638 3.779528,-3.779528 7.559055,-18.897638 -7.559056,-18.897638 0,15.118111 3.779528,37.795275 3.779528,41.574803 0,3.779528 -3.779527,3.779528 -7.559055,3.779528 H 36.795278 c -3.779528,0 -7.559056,0 -7.559056,-3.779528 0,-3.779528 3.779528,-26.456692 3.779528,-41.574803 -15.118111,0 -11.338583,15.11811 -7.559056,18.897638 -7.559055,0 -22.6771661,0 -22.6771661,-18.897638 z"
  />
  <path
    style="fill: var(--svgPrimaryColor); stroke-width: 2px; stroke: currentColor;"
    d="m 25.456694,55.692914
      c -3.779527,0 -11.338583,-3.779528 -11.338583,-15.118111 0,-11.338582 11.338583,-15.11811 18.897639,-15.11811
      v 11.338583
      c -11.875751,0.982183 -13.167855,7.979027 -7.559056,18.897638
      z"
  />
  <path
    style="fill: var(--svgPrimaryColor); stroke-width: 2px; stroke: currentColor;"
    d="m 63.251972,55.692914
      c 3.779527,0 11.338583,-3.779528 11.338583,-15.118111 0,-11.338582 -11.338583,-15.11811 -18.897639,-15.11811
      v 11.338583
      c 11.875751,0.982183 13.167855,7.979027 7.559056,18.897638
      z"
  />
  <path
    stroke-linejoin="round"
    style="fill: none; stroke: currentColor; stroke-width: 2px;"
    d="m 2.7795279,36.795276 c 0,-18.897638 18.8976391,-30.2362208 41.5748051,-30.2362208 22.677167,0 41.574805,11.3385828 41.574805,30.2362208 0,18.897638 -15.118111,18.897638 -22.677166,18.897638 3.779528,-3.779528 7.559055,-18.897638 -7.559056,-18.897638 0,15.118111 3.779528,37.795275 3.779528,41.574803 0,3.779528 -3.779527,3.779528 -7.559055,3.779528 H 36.795278 c -3.779528,0 -7.559056,0 -7.559056,-3.779528 0,-3.779528 3.779528,-26.456692 3.779528,-41.574803 -15.118111,0 -11.338583,15.11811 -7.559056,18.897638 -7.559055,0 -22.6771661,0 -22.6771661,-18.897638 z"
  />
</svg>
