<svg
  viewBox="-3 0 56 53"
  xmlns="http://www.w3.org/2000/svg"
  style="fill: none; width: 1em; height: 1em; stroke-width: 2px; stroke: currentColor;"
>
    <path
      stroke-linejoin="round"
      style="fill: var(--svgPrimaryColor)"
      d="M 25.000001,4.9999999
C 25.000001,15 5.0000006,17 5.0000006,32
c 0,15 11.0309174,17.999998 20.0000004,17.999998 8.969082,0 20.000001,-2.999999 20.000001,-17.999998 0,-14.999999 -20.000001,-17 -20.000001,-27.0000001
z

m 0,8.0000001
C 25.000001,17.999999 12,21.999999 12,33.999999
c 0,12.999999 9,16 13.000001,16 4.000001,0 13,-3.000001 13,-16 0,-12 -13,-16 -13,-20.999999
z

m 0,6.999999
c 0,3 -8.000001,8 -8.000001,17 0,6 3.000001,13.000002 8.000001,13.000001 5,-10e-7 8,-7.000001 8,-13.000001 0,-9 -8,-14 -8,-17
z

m 0,9.000001
c 0,2 -3,4.999999 -3,11.999999 0,7 2,9 3,9.000004 1,4e-6 3.000001,-2.000004 3.000001,-9.000004 0,-7 -3.000001,-9.999999 -3.000001,-11.999999
z"
    />
</svg>
