<svg
  viewBox="-1 1 53 56"
  version="1.1"
  xmlns="http://www.w3.org/2000/svg"
  style="stroke: currentColor; stroke-width: 1.5px; fill: none; width: 1em; height: 1em;"
>
  <path
    stroke-linejoin="round"
    style="fill: var(--svgPrimaryColor)"
    d="m 25.000024,5.0002116 c 0,9.9999804 -19.9998124,11.9999324 -19.9998124,26.9999024 0,14.99997 11.0307474,17.999935 19.9998124,17.999935 8.969064,0 19.999813,-2.999966 19.999813,-17.999935 0,-14.999969 -19.999813,-16.999922 -19.999813,-26.9999024 z"
  />
  <path
    stroke-linejoin="round"
    style="fill: var(--svgPrimaryColor)"
    d="m 25.000024,11.941906 c 0,4.999994 -13.00024,8.999764 -13.00024,20.999752 0,12.999986 9.000243,15.47089 13.00024,15.47089 3.999997,0 12.999724,-3.000071 12.999724,-16.000057 0,-11.999988 -12.999724,-15.470591 -12.999724,-20.470585 z"
  />
  <path
    stroke-linejoin="round"
    style="fill: var(--svgSecondaryColor)"
    d="m 25.000024,16.824812 c 0,2.999997 -8.000028,8.000005 -8.000028,16.999996 0,5.999994 3.000033,13.000241 8.000028,13.00024 4.999995,-1e-6 8.000029,-7.000246 8.000029,-13.00024 0,-8.999991 -8.000029,-13.999999 -8.000029,-16.999996 z"
  />
  <path
    stroke-linejoin="round"
    style="fill: var(--svgSecondaryColor)"
    d="m 25.000024,23.708114 c 0,1.233331 -2.999816,5.000308 -2.999816,12.000301 0,6.999993 1.999817,8.999963 2.999816,8.999967 0.999999,4e-6 2.999817,-1.999974 2.999817,-8.999967 0,-6.999993 -2.999817,-10.76697 -2.999817,-12.000301 z"
  />
</svg>
