<svg
  viewBox="-0.5 1 34.5 36"
  xmlns="http://www.w3.org/2000/svg"
  style="stroke: currentColor; stroke-width: 1px; fill: none; width: 1em; height: 1em;"
>
  <path
    stroke-linejoin="round"
    stroke-linecap="round"
    style="fill: var(--svgPrimaryColor)"
    d="M 6.1109249,17.003558 C 5.4571366,17.761092 5.0545127,18.463279 5.0167853,19.048265 4.5370807,26.486365 20.346939,35.601047 24.677063,33.10105 29.007185,30.601052 29.018568,12.35197 22.337132,9.0483589 21.82078,8.7930504 21.031676,8.7847468 20.071868,8.9622984 19.450714,9.8700166 18.48803,10.55905 17.399861,10.967432 c 1.008096,0.466431 1.876194,1.182608 2.403497,2.095921 -1.404615,0.810955 -3.272669,0.813304 -4.878804,0.208568 0.985365,1.390769 1.456146,3.181965 1.039345,4.737487 -1.555522,-0.416801 -2.871351,-1.720107 -3.583111,-3.268842 -0.279351,1.693321 -1.215414,3.30993 -2.6200265,4.120883 -0.5248668,-0.909095 -0.7110806,-2.012956 -0.6140736,-3.114128 -0.8932215,0.713416 -1.9560002,1.182668 -3.035763,1.256237 z"
  />
  <path
    stroke-linejoin="round"
    stroke-linecap="round"
    style="fill: var(--svgSecondaryColor);stroke-width: 1px;"
    d="m 11.963884,11.08118 c -0.01992,0.07436 -0.02999,0.151032 -0.04591,0.226403 -0.07918,0.374948 -0.110045,0.76067 -0.09602,1.150399 10e-4,0.02754 2.78e-4,0.05499 0.0017,0.08256 0.03863,0.744731 0.234025,1.496994 0.557124,2.200033 0.711749,1.548711 2.027614,2.852049 3.583111,3.268843 0.416794,-1.555497 -0.054,-3.346739 -1.039345,-4.737487 -0.447307,-0.631338 -1.001073,-1.176677 -1.626722,-1.5825 -0.0053,-0.0034 -0.01098,-0.0063 -0.01633,-0.0097 -0.346043,-0.222679 -0.714012,-0.399579 -1.097889,-0.52494 -0.07345,-0.02403 -0.145138,-0.05364 -0.219735,-0.07363 z"
  />
  <path
    stroke-linejoin="round"
    stroke-linecap="round"
    style="fill: var(--svgSecondaryColor);stroke-width: 1px;"
    d="m 12.076173,10.992483 c 0.03243,0.05617 0.07246,0.107692 0.107448,0.162327 0.383881,0.125357 0.751847,0.302261 1.09789,0.52494 0.0053,0.0034 0.01098,0.0063 0.01633,0.0096 0.625646,0.40582 1.17942,0.951166 1.626722,1.5825 1.60612,0.60473 3.474204,0.602379 4.878805,-0.208568 -0.527302,-0.913299 -1.395415,-1.629492 -2.403501,-2.095916 -0.524388,-0.242629 -1.086473,-0.416659 -1.658574,-0.516292 -1.022717,-0.178108 -2.073876,-0.11064 -2.997939,0.23551 -0.06794,0.02545 -0.137854,0.04647 -0.20433,0.075 -0.15899,0.06825 -0.313494,0.1446 -0.462845,0.230827 z"
  />
  <path
    stroke-linejoin="round"
    stroke-linecap="round"
    style="fill: var(--svgSecondaryColor);stroke-width: 1px;"
    d="m 14.385998,8.951209 c -0.693013,0.4087717 -1.290944,0.9461525 -1.716176,1.590526 -0.04727,0.07165 -0.09935,0.140314 -0.142236,0.21459 0.0036,0.0021 0.0077,0.0032 0.01141,0.0053 0.06647,-0.02856 0.136385,-0.04955 0.204329,-0.075 0.924066,-0.346151 1.975221,-0.413616 2.997939,-0.23551 0.572101,0.09964 1.134186,0.273664 1.658575,0.516293 1.088165,-0.40838 2.050853,-1.0974237 2.672007,-2.0051337 0.06244,-0.091246 0.12778,-0.18069 0.182986,-0.2763046 -1.707176,-0.9856333 -4.097867,-0.7794963 -5.868858,0.2652185 z"
  />
  <path
    stroke-linejoin="round"
    stroke-linecap="round"
    style="fill: var(--svgSecondaryColor);stroke-width: 1px;"
    d="m 8.9672929,12.079699 c -1.7831523,1.013985 -3.1497895,2.97585 -3.1497902,4.941703 0.097932,7e-6 0.1956028,-0.01117 0.2934225,-0.01784 1.0797592,-0.07357 2.1425445,-0.542825 3.0357629,-1.256237 0.051144,-0.580573 0.1813259,-1.159722 0.3828664,-1.709835 0.36408,-0.993765 0.9631495,-1.886664 1.7469885,-2.515909 0.06479,-0.052 0.130136,-0.102743 0.197451,-0.150995 6.6e-5,-0.0022 6.09e-4,-0.0042 5.42e-4,-0.0063 -0.09332,-3e-6 -0.186363,0.01096 -0.27958,0.01701 -0.768408,0.04992 -1.5299135,0.301615 -2.22767,0.698389 z"
  />
  <path
    stroke-linejoin="round"
    stroke-linecap="round"
    style="fill: var(--svgSecondaryColor);stroke-width: 0.9px;"
    d="m 9.9557075,4.8175539 c -0.04889,0.024623 -0.09477,0.051969 -0.13796,0.081441 -0.296716,0.2025171 -0.4779906,0.5277143 -0.4722498,0.9690122 0.029073,2.2348088 0.8476673,3.7945819 1.8494653,5.5133029 0.09321,-0.006 0.186265,-0.01701 0.27958,-0.01701 -6.5e-5,0.0022 -5.41e-4,0.0042 -5.42e-4,0.0063 0.116328,-0.08339 0.233705,-0.165368 0.357376,-0.236769 0.03234,0.05601 0.05678,0.116341 0.0866,0.173764 0.01595,-0.07537 0.02599,-0.152046 0.04591,-0.226404 0.0746,0.01999 0.146271,0.04964 0.219734,0.07363 -0.03492,-0.05468 -0.07502,-0.106164 -0.107449,-0.162327 0.149351,-0.08623 0.303853,-0.162578 0.462843,-0.230826 -0.0036,-0.0021 -0.0077,-0.0032 -0.01141,-0.0053 0.04288,-0.07427 0.09496,-0.142937 0.142237,-0.214591 C 11.852709,8.9446057 11.558694,7.7842415 11.441443,5.8322567 11.423393,5.5318151 11.376336,4.9966595 11.068215,4.7982329 10.760501,4.6000686 10.29799,4.6451571 9.9557635,4.817544 Z"
  />
  <path
    stroke-linejoin="round"
    stroke-linecap="round"
    style="fill: var(--svgSecondaryColor);stroke-width: 1px;"
    d="m 11.831373,11.133818 c -0.123668,0.0714 -0.241051,0.153374 -0.357375,0.236769 -0.06733,0.04823 -0.13267,0.09899 -0.197452,0.150996 -0.783836,0.629242 -1.3829095,1.522147 -1.7469885,2.515908 -0.2015409,0.550114 -0.3317219,1.129261 -0.3828663,1.709835 -0.097007,1.101168 0.089209,2.205037 0.6140743,3.114129 1.4046065,-0.810952 2.3406755,-2.427569 2.6200255,-4.120884 -0.323101,-0.703048 -0.518496,-1.455294 -0.557124,-2.200033 -0.0014,-0.02756 -7.24e-4,-0.05502 -0.0017,-0.08256 -0.01403,-0.389732 0.01684,-0.775451 0.09602,-1.150399 -0.02981,-0.05743 -0.05427,-0.117759 -0.08661,-0.173764 z"
  />
  <path
    stroke-linejoin="round"
    stroke-linecap="round"
    style="stroke-width: 1px"
    d="m 13.006731,20.887303 0.5,0.866025 z m 2.999999,5.196152 0.500001,0.866025 z m 0.464102,-7.196153 0.500001,0.866025 z m 3.464101,-2 0.500001,0.866026 z m 3.000001,5.196152 0.500001,0.866026 z m 0.464101,-7.196152 0.500001,0.866026 z m -10.624355,9.598077 0.5,0.866025 z m 3.464102,-2 0.499999,0.866025 z m 3.464101,-2.000001 0.500001,0.866026 z m 3.464084,-2.000029 0.500018,0.866055 z M 19.499999,24.133973 20,24.999999 Z m -0.261218,3.547558 0.500001,0.866025 z m 3.464102,-2.000001 0.5,0.866026 z m -0.23205,3.598076 0.499999,0.866027 z M 9.5426295,22.887302 10.042629,23.753328 Z"
  />
</svg>
