<svg
  viewBox="0 0 44 44"
  xmlns="http://www.w3.org/2000/svg"
  style="stroke: currentColor; stroke-width: 1.5px; fill: none; width: 1em; height: 1em;"
>
  <path
    style="fill: var(--svgPrimaryColor)"
    stroke-linejoin="round"
    stroke-linecap="round"
    d="m 8.9999995,13.991574 c -5.000001,5.000001 -5,15 0,20 5.0000005,5 10.0000005,3 13.0000005,3 3,0 8,2 13,-3 5,-5 5,-15 0,-20 -4,-3.9999985 -11,-2 -13,-2 -2,0 -9,-1.9999985 -13.0000005,2 z"
  />
  <path
    style="fill: var(--svgSecondaryColor)"
    stroke-linejoin="round"
    stroke-linecap="round"
    d="m 12,11.991574 5,1 -3,4 6,-3 2.000001,5.008425 L 24,13.991574 l 5,3 -2,-4 5,-1 C 29.095152,11.454974 26.22268,10.667896 23.261966,10.520327 23.051905,10.509857 23.312008,4.9915755 23,4.9915755 c -0.41973,0 -1.579047,0 -2,0 -0.314937,0 -0.0519,5.5182765 -0.261966,5.5287515 C 17.781039,10.667782 14.897113,11.42508 12,11.991574 Z"
  />
</svg>
