<svg
  viewBox="-2 -2 44.357 44.357"
  xmlns="http://www.w3.org/2000/svg"
  style="stroke: currentColor; stroke-width: 1.5px; fill: none; width: 1em; height: 1em;"
>
  <path
    stroke-linejoin="round"
    stroke-linecap="round"
    style="fill: var(--svgPrimaryColor);"
    d="m 36.35534,36.35534 -3.535539,-3.535529
        c -4.242633,4.304123 -11.313704,4.242635 -15.556344,-5e-6 4.24264,-4.242641 11.31371,-4.181154 15.556349,0 4.242643,-4.181153 4.242641,-11.313709 10e-7,-15.55635 -4.242642,4.242641 -4.24264,11.375196 -10e-7,15.55635
        l -6.363961,-6.363961
        c -4.242641,-4.242641 -11.313709,-4.242641 -15.55635,0 4.242641,4.24264 11.313709,4.24264 15.55635,0 -4.242641,-4.242641 -4.242641,-11.313709 1e-6,-15.55635 4.24264,4.242641 4.24264,11.313709 -1e-6,15.55635
        l -6.363961,-6.363961
        c -4.242641,4.24264 -11.3137102,4.24264 -15.5563501,0
        L 1,16.55635 4.5355339,20.091884
        c 4.2426409,-4.24264 11.3137091,-4.242641 15.5563501,0 4.242641,-4.242641 4.242641,-11.3137099 1e-6,-15.5563497
        L 16.556351,0.99999997 20.091885,4.5355343
        c -4.242639,4.2426388 -4.242642,11.3137087 -1e-6,15.5563497
        L 15.849243,15.849243
        C 10.100159,15.757012 5.8575174,11.514372 5.857517,5.8575173
        L 1.7071067,1.7071074 5.857517,5.8575173
        c 5.656855,0 9.899496,4.2426417 9.991726,9.9917257 6.818746,6.81875 20.506097,20.506097 20.506097,20.506097
        z"
  />
</svg>
